HIERARCHY
ROOT hip
{
  OFFSET 0 0 0
  CHANNELS 6 Xposition Yposition Zposition Zrotation Yrotation Xrotation
  JOINT abdomen
  {
    OFFSET 0 20.6881 -0.73152
    CHANNELS 3 Zrotation Xrotation Yrotation
    JOINT chest
    {
      OFFSET 0 11.7043 -0.48768
      CHANNELS 3 Zrotation Xrotation Yrotation
      JOINT neck
      {
        OFFSET 0 22.1894 -2.19456
        CHANNELS 3 Zrotation Xrotation Yrotation
        JOINT head
        {
          OFFSET -0.24384 7.07133 1.2192
          CHANNELS 3 Zrotation Xrotation Yrotation
          JOINT leftEye
          {
            OFFSET 4.14528 8.04674 8.04672
            CHANNELS 3 Zrotation Xrotation Yrotation
            End Site
            {
              OFFSET 1 0 0
            }
          }
          JOINT rightEye
          {
            OFFSET -3.6576 8.04674 8.04672
            CHANNELS 3 Zrotation Xrotation Yrotation
            End Site
            {
              OFFSET 1 0 0
            }
          }
        }
      }
      JOINT rCollar
      {
        OFFSET -2.68224 19.2634 -4.8768
        CHANNELS 3 Zrotation Xrotation Yrotation
        JOINT rShldr
        {
          OFFSET -8.77824 -1.95073 1.46304
          CHANNELS 3 Zrotation Xrotation Yrotation
          JOINT rForeArm
          {
            OFFSET -28.1742 -1.7115 0.48768
            CHANNELS 3 Zrotation Xrotation Yrotation
            JOINT rHand
            {
              OFFSET -22.5879 0.773209 7.07136
              CHANNELS 3 Zrotation Xrotation Yrotation
              JOINT rThumb1
              {
                OFFSET -1.2192 -0.487915 3.41376
                CHANNELS 3 Zrotation Xrotation Yrotation
                JOINT rThumb2
                {
                  OFFSET -3.37035 -0.52449 3.41376
                  CHANNELS 3 Zrotation Xrotation Yrotation
                  End Site
                  {
                    OFFSET -1.78271 -1.18214 1.43049
                  }
                }
              }
              JOINT rIndex1
              {
                OFFSET -7.75947 0.938293 5.60832
                CHANNELS 3 Zrotation Xrotation Yrotation
                JOINT rIndex2
                {
                  OFFSET -2.54057 -0.884171 1.56538
                  CHANNELS 3 Zrotation Xrotation Yrotation
                  End Site
                  {
                    OFFSET -1.62519 -0.234802 1.16502
                  }
                }
              }
              JOINT rMid1
              {
                OFFSET -8.24714 1.18213 3.41376
                CHANNELS 3 Zrotation Xrotation Yrotation
                JOINT rMid2
                {
                  OFFSET -3.10165 -0.590103 1.0647
                  CHANNELS 3 Zrotation Xrotation Yrotation
                  End Site
                  {
                    OFFSET -2.48547 -0.328903 0.83742
                  }
                }
              }
              JOINT rRing1
              {
                OFFSET -8.82822 0.546677 1.51678
                CHANNELS 3 Zrotation Xrotation Yrotation
                JOINT rRing2
                {
                  OFFSET -2.60934 -0.819778 -0.0198488
                  CHANNELS 3 Zrotation Xrotation Yrotation
                  End Site
                  {
                    OFFSET -2.33842 -0.294052 0.168128
                  }
                }
              }
              JOINT rPinky1
              {
                OFFSET -8.27202 -0.0477905 -0.4584
                CHANNELS 3 Zrotation Xrotation Yrotation
                JOINT rPinky2
                {
                  OFFSET -1.82734 -0.647385 -0.700984
                  CHANNELS 3 Zrotation Xrotation Yrotation
                  End Site
                  {
                    OFFSET -1.69225 -0.51767 -0.607171
                  }
                }
              }
            }
          }
        }
      }
      JOINT lCollar
      {
        OFFSET 2.68224 19.2634 -4.8768
        CHANNELS 3 Zrotation Xrotation Yrotation
        JOINT lShldr
        {
          OFFSET 8.77824 -1.95073 1.46304
          CHANNELS 3 Zrotation Xrotation Yrotation
          JOINT lForeArm
          {
            OFFSET 28.1742 -1.7115 0.48768
            CHANNELS 3 Zrotation Xrotation Yrotation
            JOINT lHand
            {
              OFFSET 22.5879 0.773209 7.07136
              CHANNELS 3 Zrotation Xrotation Yrotation
              JOINT lThumb1
              {
                OFFSET 1.2192 -0.487915 3.41376
                CHANNELS 3 Zrotation Xrotation Yrotation
                JOINT lThumb2
                {
                  OFFSET 3.37035 -0.52449 3.41376
                  CHANNELS 3 Zrotation Xrotation Yrotation
                  End Site
                  {
                    OFFSET 1.78271 -1.18214 1.43049
                  }
                }
              }
              JOINT lIndex1
              {
                OFFSET 7.75947 0.938293 5.60832
                CHANNELS 3 Zrotation Xrotation Yrotation
                JOINT lIndex2
                {
                  OFFSET 2.54057 -0.884171 1.56538
                  CHANNELS 3 Zrotation Xrotation Yrotation
                  End Site
                  {
                    OFFSET 1.62519 -0.234802 1.16502
                  }
                }
              }
              JOINT lMid1
              {
                OFFSET 8.24714 1.18213 3.41376
                CHANNELS 3 Zrotation Xrotation Yrotation
                JOINT lMid2
                {
                  OFFSET 3.10165 -0.590103 1.0647
                  CHANNELS 3 Zrotation Xrotation Yrotation
                  End Site
                  {
                    OFFSET 2.48547 -0.328903 0.83742
                  }
                }
              }
              JOINT lRing1
              {
                OFFSET 8.82822 0.546677 1.51678
                CHANNELS 3 Zrotation Xrotation Yrotation
                JOINT lRing2
                {
                  OFFSET 2.60934 -0.819778 -0.0198488
                  CHANNELS 3 Zrotation Xrotation Yrotation
                  End Site
                  {
                    OFFSET 2.33842 -0.294052 0.168128
                  }
                }
              }
              JOINT lPinky1
              {
                OFFSET 8.27202 -0.0477905 -0.4584
                CHANNELS 3 Zrotation Xrotation Yrotation
                JOINT lPinky2
                {
                  OFFSET 1.82734 -0.647385 -0.700984
                  CHANNELS 3 Zrotation Xrotation Yrotation
                  End Site
                  {
                    OFFSET 1.69225 -0.51767 -0.607171
                  }
                }
              }
            }
          }
        }
      }
    }
  }
  JOINT rButtock
  {
    OFFSET -8.77824 4.35084 1.2192
    CHANNELS 3 Zrotation Xrotation Yrotation
    JOINT rThigh
    {
      OFFSET 0 -1.70687 -2.19456
      CHANNELS 3 Zrotation Xrotation Yrotation
      JOINT rShin
      {
        OFFSET 0 -36.8199 0.73152
        CHANNELS 3 Zrotation Xrotation Yrotation
        JOINT rFoot
        {
          OFFSET 0.73152 -45.1104 -5.12064
          CHANNELS 3 Zrotation Xrotation Yrotation
          End Site
          {
            OFFSET -1.1221 -3.69964 12.103
          }
        }
      }
    }
  }
  JOINT lButtock
  {
    OFFSET 8.77824 4.35084 1.2192
    CHANNELS 3 Zrotation Xrotation Yrotation
    JOINT lThigh
    {
      OFFSET 0 -1.70687 -2.19456
      CHANNELS 3 Zrotation Xrotation Yrotation
      JOINT lShin
      {
        OFFSET 0 -36.8199 0.73152
        CHANNELS 3 Zrotation Xrotation Yrotation
        JOINT lFoot
        {
          OFFSET -0.73152 -45.1104 -5.12064
          CHANNELS 3 Zrotation Xrotation Yrotation
          End Site
          {
            OFFSET 1.1221 -3.69964 12.103
          }
        }
      }
    }
  }
}
MOTION
Frames:	4
Frame Time:	0.03333
0.0 0.0 0.0 0.0 0.0 0.0 0.0 0.0 0.0 0.0 0.0 0.0 0.0 0.0 0.0 0.0 0.0 0.0 0.0 0.0 0.0 0.0 0.0 0.0 0.0 0.0 0.0 0.0 0.0 0.0 0.0 0.0 0.0 0.0 0.0 0.0 0.0 0.0 0.0 0.0 0.0 0.0 0.0 0.0 0.0 0.0 0.0 0.0 0.0 0.0 0.0 0.0 0.0 0.0 0.0 0.0 0.0 0.0 0.0 0.0 0.0 0.0 0.0 0.0 0.0 0.0 0.0 0.0 0.0 0.0 0.0 0.0 0.0 0.0 0.0 0.0 0.0 0.0 0.0 0.0 0.0 0.0 0.0 0.0 0.0 0.0 0.0 0.0 0.0 0.0 0.0 0.0 0.0 0.0 0.0 0.0 0.0 0.0 0.0 0.0 0.0 0.0 0.0 0.0 0.0 0.0 0.0 0.0 0.0 0.0 0.0 0.0 0.0 0.0 0.0 0.0 0.0 0.0 0.0 0.0 0.0 0.0 0.0 0.0 0.0 0.0 0.0 0.0 0.0 0.0 0.0 0.0
-4.9155 54.679100000000005 -0.9939999999999999 -128.019719 -81.969216 138.148226 2.452144 18.856799 -5.034223 4.89188 -13.019278 4.923114 6.017414 21.828127 103.410609 -40.428141 14.170924 -109.137427 -0.002895 -0.0 0.000995 -0.002895 -0.0 0.000995 4.25979 -51.061083 -10.018919 -101.798803 9.976776 162.854878 86.539471 59.814167 -152.383589 179.326966 10.169538 145.256124 11.725901 -11.700152 -0.611797 -22.218618 20.55502 12.78929 24.241319 -42.556993 -5.531708 179.065632 -43.502498 104.705189 1.278124 -3.796554 -0.679093 -157.284467 12.342869 140.658614 -145.116495 -0.157871 -179.07742 -154.395044 -10.325353 -177.830322 3.570386 10.141529 3.249738 -92.40994 -52.544465 -91.610782 -3.942384 -36.680392 7.07076 -108.565122 21.608589 -30.57782 86.945767 -73.108243 -118.404614 -160.834772 -41.876478 -137.698831 -172.992273 -23.791404 -87.788694 69.050951 8.17216 -16.737238 -8.272156 -14.461439 3.910081 -46.537401 -41.850656 -5.585674 171.345098 -39.687104 -145.238791 174.869742 -37.627579 -143.124498 0.384968 13.15773 -4.198674 -8.14449 13.284909 -1.629884 -11.188567 37.226414 -9.538845 124.912531 -34.280876 122.700145 179.90224 75.750306 0.076933 173.996961 24.775604 -26.92489 -35.25071 76.027811 99.038672 -27.317491 8.186666 -80.138125 0.002109 -0.000681 0.000743 11.285593 -45.161876 31.387702 137.411871 60.741101 -106.016083 -105.015796 -6.670207 6.210963
-7.6004000000000005 54.581599999999995 -1.4533 -139.31867 -79.335302 148.610558 1.600084 14.941588 147.761326 -9.196899 5.200919 -147.253495 5.830475 21.227125 102.240194 -38.869626 13.217529 -105.896244 0.002107 0.0 0.002901 0.001512 -0.0 -0.004303 3.034487 -24.049679 -4.747288 -134.039511 -32.512063 134.190108 13.193932 10.556641 -78.739273 170.931808 -15.187433 144.097948 -159.276984 2.965947 88.724406 15.531624 -53.825633 20.733836 -4.295864 6.628204 2.591905 -20.427576 33.71905 14.691354 -156.880231 4.466928 141.194354 13.552909 -30.418281 -0.955199 -145.076849 5.421429 179.165617 5.074198 78.142513 6.5565 5.656225 16.853066 5.082847 -149.072924 16.412602 -144.722168 156.802005 -12.971389 -163.748838 71.54662 9.890355 81.990841 129.17687 9.89159 29.679215 -32.682965 -58.457597 -20.74144 58.385629 36.166892 -28.661064 101.921507 -8.028667 -79.7109 141.810517 -0.306078 -116.829308 20.865193 41.956418 -8.726074 -104.392432 -81.549626 -74.54154 -9.602706 -20.011871 1.324129 -0.004031 2.095129 -0.656144 155.561869 -0.796928 -171.940167 155.071142 48.68168 149.445568 146.363547 6.472601 140.607833 179.980193 75.749322 0.01357 175.373937 25.483779 -159.065456 -81.020366 -49.298697 -165.307744 145.431735 55.211463 126.356448 0.000269 -0.002429 0.001363 13.055148 -54.386389 -128.545986 -128.57582 -43.192148 135.413912 18.640856 -60.453302 -69.316129
-10.408000000000001 54.4411 -1.8984 -147.925964 -75.851054 156.253389 3.084994 15.093259 170.335714 -5.32495 8.350919 -168.626123 -10.739715 28.586458 -132.917835 30.924197 38.203795 117.406211 0.004871 0.0 0.000185 -0.000841 -0.0 0.000632 3.164854 -64.474732 -13.907705 -103.352935 -10.874564 176.971978 23.815296 66.628284 -99.964241 169.273403 -18.034015 143.850067 4.74531 -4.728509 -0.536992 40.675837 -71.77578 -19.523348 -166.026935 -42.802741 122.219843 -159.895416 -17.881897 119.211304 -154.128668 11.669128 139.420202 162.219031 -67.502481 128.247012 -0.004163 3.100894 0.976495 -155.947938 -5.594356 172.533211 -135.49745 -12.544497 -132.877405 -159.02852 48.827667 -146.968623 153.409112 8.305384 -159.110338 75.003876 9.519281 60.534047 148.750812 -46.053527 35.686284 -0.560766 0.884013 -0.450269 15.776736 14.447193 -4.364759 141.317953 -44.553697 -109.826026 -29.643726 -49.950097 4.074984 -178.923417 -44.690553 -104.892829 12.523694 28.46776 -8.888877 -10.001932 -20.485506 1.524713 145.120705 0.420074 179.259637 9.796575 -63.876903 30.801386 18.069808 -31.235457 17.293252 102.38646 -48.93762 102.155826 -0.009641 0.000749 -0.00692 -4.301191 -47.243837 -179.189351 -66.424328 -77.889288 21.327451 -149.201074 -66.210835 -59.064254 179.995646 75.748894 0.002808 -172.381314 13.852433 -137.878594 -137.620607 -52.369316 -61.780416 -71.498747 67.726165 161.394156
